<?xml version="1.0" encoding="UTF-8" standalone="no"?>
<svg
   viewBox="0 0 610 610"
   width="25"
   height="25"
   version="1.1"
   id="svg6"
   sodipodi:docname="binance-smart.svg"
   inkscape:version="1.1.1 (3bf5ae0d25, 2021-09-20)"
   xmlns:inkscape="http://www.inkscape.org/namespaces/inkscape"
   xmlns:sodipodi="http://sodipodi.sourceforge.net/DTD/sodipodi-0.dtd"
   xmlns="http://www.w3.org/2000/svg"
   xmlns:svg="http://www.w3.org/2000/svg">
  <defs
     id="defs10" />
  <sodipodi:namedview
     id="namedview8"
     pagecolor="#505050"
     bordercolor="#ffffff"
     borderopacity="1"
     inkscape:pageshadow="0"
     inkscape:pageopacity="0"
     inkscape:pagecheckerboard="1"
     showgrid="false"
     fit-margin-top="0"
     fit-margin-left="0"
     fit-margin-right="0"
     fit-margin-bottom="0"
     inkscape:zoom="0.1165312"
     inkscape:cx="-1227.1392"
     inkscape:cy="1514.6159"
     inkscape:window-width="1920"
     inkscape:window-height="1013"
     inkscape:window-x="-9"
     inkscape:window-y="-9"
     inkscape:window-maximized="1"
     inkscape:current-layer="svg6" />
  <circle
     cx="305"
     cy="305"
     r="305"
     id="circle2"
     style="fill:#333333" />
  <g
     fill="#f3ba2f"
     id="g12"
     transform="matrix(3.5019821,0,0,3.5019828,82.965002,84.013151)">
    <path
       d="M 38.73,53.2 63.32,28.62 87.92,53.22 102.22,38.91 63.32,0 24.42,38.9 Z"
       id="path2" />
    <path
       d="M 0,63.31 14.3,49 28.61,63.31 14.3,77.61 Z"
       id="path4" />
    <path
       d="M 38.73,73.41 63.32,98 87.92,73.4 102.23,87.69 63.33,126.6 24.42,87.72 Z"
       id="path6" />
    <path
       d="M 98,63.31 112.3,49 126.61,63.3 112.3,77.62 Z"
       id="path8" />
    <path
       d="M 77.83,63.3 63.32,48.78 52.59,59.51 l -1.24,1.23 -2.54,2.54 14.51,14.5 14.51,-14.47 z"
       id="path10" />
  </g>
</svg>
