<?xml version="1.0" encoding="UTF-8" standalone="no"?>
<!-- Generator: Adobe Illustrator 26.0.3, SVG Export Plug-In . SVG Version: 6.00 Build 0)  -->

<svg
   version="1.0"
   id="Layer_1"
   x="0px"
   y="0px"
   viewBox="0 0 103 103"
   xml:space="preserve"
   sodipodi:docname="floki.svg"
   width="103"
   height="103"
   inkscape:version="1.1.2 (08b2f3d93c, 2022-04-05)"
   xmlns:inkscape="http://www.inkscape.org/namespaces/inkscape"
   xmlns:sodipodi="http://sodipodi.sourceforge.net/DTD/sodipodi-0.dtd"
   xmlns:xlink="http://www.w3.org/1999/xlink"
   xmlns="http://www.w3.org/2000/svg"
   xmlns:svg="http://www.w3.org/2000/svg"><defs
   id="defs83"><linearGradient
     inkscape:collect="always"
     id="linearGradient1521"><stop
       style="stop-color:#0000ff;stop-opacity:1;"
       offset="0"
       id="stop1517" /><stop
       style="stop-color:#ff00ff;stop-opacity:1"
       offset="1"
       id="stop1519" /></linearGradient><linearGradient
     inkscape:collect="always"
     xlink:href="#linearGradient1521"
     id="linearGradient1523"
     x1="51.330631"
     y1="3.6205916"
     x2="49.827847"
     y2="98.317589"
     gradientUnits="userSpaceOnUse" /></defs><sodipodi:namedview
   id="namedview81"
   pagecolor="#ffffff"
   bordercolor="#666666"
   borderopacity="1.0"
   inkscape:pageshadow="2"
   inkscape:pageopacity="0.0"
   inkscape:pagecheckerboard="0"
   showgrid="false"
   height="100px"
   inkscape:zoom="8.011696"
   inkscape:cx="61.098174"
   inkscape:cy="51.299999"
   inkscape:window-width="1853"
   inkscape:window-height="1025"
   inkscape:window-x="67"
   inkscape:window-y="27"
   inkscape:window-maximized="1"
   inkscape:current-layer="Layer_1" />
<style
   type="text/css"
   id="style2">
	.st0{fill:#F4A427;}
	.st1{fill:#FFFFFF;}
	.st2{fill:#F79422;}
	.st3{fill:none;stroke:#221F1F;stroke-linejoin:round;}
	.st4{fill:#5A595C;}
	.st5{fill:#929497;}
	.st6{fill:none;stroke:#221F1F;stroke-linecap:round;stroke-linejoin:round;}
	.st7{fill:none;stroke:#221F1F;stroke-miterlimit:10;}
	.st8{fill:none;stroke:#171717;stroke-linecap:round;stroke-linejoin:round;}
	.st9{fill:#171717;}
	.st10{fill:#221F1F;}
</style>

<ellipse
   style="fill:url(#linearGradient1523);fill-opacity:1;stroke-width:1.01182"
   id="path922"
   cx="51.605522"
   cy="51.594608"
   rx="51.174999"
   ry="51.174538" /><circle
   style="fill:#ffe6d5;fill-opacity:1;stroke-width:1.01154"
   id="path883"
   cx="51.620823"
   cy="51.143467"
   r="42.627037" /><g
   id="Layer_2_00000096758436641758334450000017841725478599035553_"
   transform="matrix(0.89376143,0,0,0.89376143,-15.375119,8.2027009)">
	<g
   id="Layer_4">
		<path
   class="st0"
   d="m 103.9,69.3 c -0.8,9.5 -12,17.5 -28.8,17.1 v 0 C 59.3,86 48.2,79.4 47.4,69.9 c -0.1,-1.2 0,-2.4 0.1,-3.7 0.5,-3.7 1.8,-7.2 3.7,-10.4 l 1.2,0.5 c 3.1,-1.2 6.3,-2.1 9.6,-2.7 4.3,-0.6 8.7,-0.7 13,-0.4 v 0 c 4.3,-0.3 8.7,-0.2 13,0.4 3.3,0.6 6.5,1.5 9.6,2.7 l 1.2,-0.5 0.8,-0.4 c 1.9,3.2 3.2,6.7 3.9,10.4 0.2,1.1 0.3,2.3 0.2,3.4"
   id="path4" />
		<path
   class="st1"
   d="m 103.9,69.3 c -0.8,9.4 -11.9,17.1 -28.8,17 v 0 c -15.8,-0.4 -26.9,-7 -27.7,-16.5 -0.1,-1.2 0,-2.4 0.1,-3.7 1.7,-0.4 3.4,-0.4 5.1,-0.1 3.2,0.5 5,2.5 7.3,3.5 1.3,0.6 2.6,-0.4 3.8,-1.5 3.2,-3.1 7.5,-4.9 11.9,-5 4.5,-0.1 8.2,1.7 12.1,5.3 0.8,0.8 1.9,1.3 3,1.2 1,-0.3 2,-0.8 2.8,-1.5 3,-2 6.6,-2.8 10.1,-2.3 0.3,1.3 0.4,2.4 0.3,3.6"
   id="path6" />
		<path
   class="st2"
   d="m 57.4,45.9 c -1.1,1.1 -2.5,1.9 -4,2.2 l -0.6,0.1 c -0.6,0.2 -1.2,0.3 -1.9,0.3 -0.1,0 -0.3,0 -0.4,0 -0.3,-0.1 -0.7,-0.2 -1,-0.3 -1.1,-0.5 -2.1,-1.1 -3,-1.9 C 44.7,44.8 43,43.1 41.7,41.1 36.2,33.1 37.9,22.3 45.5,16.3 46,16 46.6,16 47,16.5 c 0.2,0.3 0.3,0.6 0.2,0.9 -0.7,3.2 -1.3,8.2 1.7,12.5 2.6,3.6 8,7.1 11.3,7.1 0.7,4 -0.4,6.7 -2.8,8.9"
   id="path8" />
		<path
   class="st3"
   d="m 57.4,45.9 c -1.1,1.1 -2.5,1.9 -4,2.2 l -0.6,0.1 c -0.6,0.2 -1.2,0.3 -1.9,0.3 -0.1,0 -0.3,0 -0.4,0 -0.3,-0.1 -0.7,-0.2 -1,-0.3 -1.1,-0.5 -2.1,-1.1 -3,-1.9 C 44.7,44.8 43,43.1 41.7,41.1 36.2,33.1 37.9,22.3 45.5,16.3 46,16 46.6,16 47,16.5 c 0.2,0.3 0.3,0.6 0.2,0.9 -0.7,3.2 -1.3,8.2 1.7,12.5 2.6,3.6 8,7.1 11.3,7.1 0.7,4 -0.4,6.7 -2.8,8.9 z"
   id="path10" />
		<path
   class="st4"
   d="m 71.8,32.1 -1.3,12.8 h -0.1 c -2,0.3 -4.7,0.7 -8.4,1.3 -3.4,0.5 -8,2.9 -10.7,4.5 L 51,48.6 c 0.6,-0.1 1.3,-0.2 1.9,-0.3 l 0.6,-0.1 c 1.5,-0.3 2.9,-1.1 4,-2.2 2.3,-2.3 3.5,-4.9 2.7,-9 l 0.4,0.1 c 1.2,-1.3 2.6,-2.3 4.2,-3.1 2.1,-1.2 4.5,-1.8 7,-1.9"
   id="path12" />
		<path
   class="st3"
   d="m 71.8,32.1 -1.3,12.8 h -0.1 c -2,0.3 -4.7,0.7 -8.4,1.3 -3.4,0.5 -8,2.9 -10.7,4.5 L 51,48.6 c 0.6,-0.1 1.3,-0.2 1.9,-0.3 l 0.6,-0.1 c 1.5,-0.3 2.9,-1.1 4,-2.2 2.3,-2.3 3.5,-4.9 2.7,-9 l 0.4,0.1 c 1.2,-1.3 2.6,-2.3 4.2,-3.1 2.1,-1.2 4.5,-1.8 7,-1.9 z"
   id="path14" />
		<path
   class="st5"
   d="m 101,55.1 -0.8,0.4 v 0 l -0.8,0.4 -1.2,0.5 C 95.1,55.2 91.9,54.3 88.6,53.7 84.3,52.9 80,52.5 75.6,52.5 v 0 c -4.4,0 -8.7,0.3 -13,1.2 -3.3,0.6 -6.5,1.5 -9.6,2.7 -0.4,-0.2 -0.8,-0.4 -1.2,-0.5 l -1.7,-0.8 c 0.1,-1.4 0,-2.2 0,-3.6 0.3,-0.2 0.8,-0.5 1.3,-0.8 l 0.1,-0.1 c 2.6,-1.6 7.2,-3.9 10.6,-4.5 3.7,-0.6 6.3,-1 8.4,-1.3 1.3,-0.1 2.7,-0.1 4.1,-0.1 2.1,0 4,0 5.9,0.1 2,0.3 4.7,0.7 8.5,1.3 3.5,0.5 8.1,2.9 10.8,4.5 h 0.1 c 0.5,0.3 0.9,0.5 1.2,0.8 -0.1,1.5 -0.2,2.3 -0.1,3.7"
   id="path16" />
		<path
   class="st6"
   d="m 101,55.1 -0.8,0.4 v 0 l -0.8,0.4 -1.2,0.5 C 95.1,55.2 91.9,54.3 88.6,53.7 84.3,53 80,52.6 75.6,52.6 v 0 c -4.4,0 -8.7,0.3 -13,1.1 -3.3,0.6 -6.5,1.5 -9.6,2.7 -0.4,-0.2 -0.8,-0.4 -1.2,-0.5 l -1.7,-0.8 c 0.1,-1.4 0,-2.2 0,-3.6 0.3,-0.2 0.8,-0.5 1.3,-0.8 l 0.1,-0.1 c 2.6,-1.6 7.2,-3.9 10.6,-4.5 3.7,-0.6 6.3,-1 8.4,-1.3 1.3,-0.1 2.7,-0.1 4.1,-0.1 2.1,0 4,0 5.9,0.1 2,0.3 4.7,0.7 8.5,1.3 3.5,0.5 8.1,2.9 10.8,4.5 h 0.1 c 0.5,0.3 0.9,0.5 1.2,0.8 -0.1,1.5 -0.2,2.3 -0.1,3.7 z"
   id="path18" />
		<path
   class="st5"
   d="m 80.4,44.9 c -1.8,-0.1 -3.8,-0.2 -5.9,-0.1 -1.4,0 -2.8,0.1 -4.1,0.1 h 0.1 l 1.3,-12.8 0.3,-2.6 c 1,-0.6 2.2,-0.9 3.3,-0.9 h 0.2 c 1.2,0 2.3,0.3 3.3,0.9 l 0.3,2.6 v 0.1 z"
   id="path20" />
		<path
   class="st6"
   d="m 80.4,44.9 c -1.8,-0.1 -3.8,-0.2 -5.9,-0.1 -1.4,0 -2.8,0.1 -4.1,0.1 h 0.1 l 1.3,-12.8 0.3,-2.6 c 1,-0.6 2.2,-0.9 3.3,-0.9 h 0.2 c 1.2,0 2.3,0.3 3.3,0.9 l 0.3,2.6 v 0.1 z"
   id="path22" />
		<line
   class="st6"
   x1="100.2"
   y1="55.5"
   x2="100.2"
   y2="55.5"
   id="line24" />
		<path
   class="st6"
   d="M 103.9,69.4 C 103.1,78.9 91,86.5 75.1,86.5 v 0 C 59.3,86.1 48.2,79.5 47.5,70 c -0.1,-1.2 0,-2.4 0.1,-3.7 0.5,-3.7 1.8,-7.2 3.7,-10.4 l 1.2,0.5 c 3.1,-1.2 6.3,-2.1 9.6,-2.7 4.3,-0.8 8.6,-1.1 13,-1.2 v 0 c 4.4,0 8.7,0.4 13,1.2 3.3,0.6 6.5,1.5 9.6,2.7 l 1.3,-0.5 0.8,-0.4 c 1.9,3.2 3.2,6.7 3.9,10.4 0.3,1.2 0.3,2.4 0.2,3.5 z"
   id="path26" />
		<path
   class="st2"
   d="m 108.8,41.1 c -1.4,1.9 -3,3.7 -4.9,5.2 -0.9,0.8 -1.9,1.4 -3,1.9 l -0.5,0.2 -0.3,0.1 c -0.7,0.2 -1.1,0 -2.4,-0.2 l -0.6,-0.1 c -1.5,-0.3 -2.9,-1.1 -4,-2.2 -2.3,-2.3 -3.5,-4.9 -2.7,-9 3.2,0.1 8.7,-3.4 11.3,-7.1 2.9,-4.3 2.3,-9.3 1.6,-12.5 -0.1,-0.6 0.2,-1.1 0.8,-1.3 0.3,-0.1 0.7,0 0.9,0.2 7.6,6 9.3,16.9 3.8,24.8"
   id="path28" />
		<path
   class="st3"
   d="m 108.8,41.1 c -1.4,1.9 -3,3.7 -4.9,5.2 -0.9,0.8 -1.9,1.4 -3,1.9 l -0.5,0.2 -0.3,0.1 c -0.7,0.2 -1.1,0 -2.4,-0.2 l -0.6,-0.1 c -1.5,-0.3 -2.9,-1.1 -4,-2.2 -2.3,-2.3 -3.5,-4.9 -2.7,-9 3.2,0.1 8.7,-3.4 11.3,-7.1 2.9,-4.3 2.3,-9.3 1.6,-12.5 -0.1,-0.6 0.2,-1.1 0.8,-1.3 0.3,-0.1 0.7,0 0.9,0.2 7.6,6 9.3,16.9 3.8,24.8 z"
   id="path30" />
		<path
   class="st4"
   d="m 100.1,48.5 -0.4,2.2 c -2.7,-1.6 -7.3,-4 -10.8,-4.5 -3.8,-0.6 -6.4,-1 -8.5,-1.3 L 79.1,32.1 c 2.3,0.1 4.6,0.8 6.7,1.9 1.6,0.8 3,1.9 4.2,3.1 L 90.4,37 c -0.8,4 0.4,6.7 2.7,9 1.1,1.1 2.5,1.9 4,2.2 0.1,0 0.5,0.2 0.6,0.2 0.8,0.3 1.6,0.3 2.4,0.1"
   id="path32" />
		<path
   class="st3"
   d="m 100.1,48.5 -0.4,2.2 c -2.7,-1.6 -7.3,-4 -10.8,-4.5 -3.8,-0.6 -6.4,-1 -8.5,-1.3 L 79.1,32.1 c 2.3,0.1 4.6,0.8 6.7,1.9 1.6,0.8 3,1.9 4.2,3.1 L 90.4,37 c -0.8,4 0.4,6.7 2.7,9 1.1,1.1 2.5,1.9 4,2.2 l 0.6,0.1 c 1.3,0.2 1.7,0.4 2.4,0.2 z"
   id="path34" />
		<path
   class="st3"
   d="M 79.1,32.1 H 78.7"
   id="path36" />
		<path
   class="st2"
   d="m 100.2,48 c 0.7,0.8 0.5,2 -0.3,2.7 -0.1,0.1 -0.1,0.1 -0.2,0.2"
   id="path38" />
		<path
   class="st7"
   d="m 100.2,48 c 0.7,0.8 0.5,2 -0.3,2.7 -0.1,0.1 -0.1,0.1 -0.2,0.2"
   id="path40" />
		<path
   class="st2"
   d="m 50.9,48 c -0.7,0.8 -0.5,2 0.3,2.7 0.1,0.1 0.1,0.1 0.2,0.2"
   id="path42" />
		<path
   class="st7"
   d="m 50.9,48 c -0.7,0.8 -0.5,2 0.3,2.7 0.1,0.1 0.1,0.1 0.2,0.2"
   id="path44" />
		<path
   class="st8"
   d="m 71.8,73.2 c 0.7,0.2 1.5,0.1 2.2,-0.3 1.1,-0.4 1.8,-1.5 1.7,-2.7 -0.1,1.2 0.6,2.3 1.7,2.7 0.7,0.3 1.4,0.4 2.1,0.3"
   id="path46" />
		<path
   class="st9"
   d="m 79.6,66.8 c 0,1.2 -1.8,2.8 -4,2.8 -2.2,0 -4,-1.6 -4,-2.8 0,-1.2 1.8,-1.6 4,-1.6 2.2,0 4,0.5 4,1.6"
   id="path48" />
		<path
   class="st1"
   d="m 77.2,66.4 c 0,0.3 -0.8,0.7 -1.7,0.7 -0.9,0 -1.7,-0.4 -1.7,-0.6 0,-0.2 0.8,-0.2 1.7,-0.2 0.9,0 1.7,-0.2 1.7,0.1"
   id="path50" />
		<path
   class="st8"
   d="m 69.3,70.2 c -0.1,1.4 0.8,2.6 2.2,2.9 h 0.3"
   id="path52" />
		<path
   class="st8"
   d="m 75.7,68.8 c 0,0.5 0,0.9 0,1.4"
   id="path54" />
		<path
   class="st8"
   d="m 79.6,73.2 h 0.3 c 1.4,-0.3 2.4,-1.5 2.2,-2.9"
   id="path56" />
		<path
   class="st3"
   d="m 105,16.3 c 7.6,6 9.2,16.8 3.7,24.7"
   id="path58" />
		<path
   class="st3"
   d="m 57.4,45.9 c -1.1,1.1 -2.5,1.9 -4,2.2 l -0.6,0.1 c -0.6,0.2 -1.2,0.3 -1.9,0.3 -0.1,0 -0.3,0 -0.4,0 -0.3,-0.1 -0.7,-0.2 -1,-0.3 -1.1,-0.5 -2.1,-1.1 -3,-1.9 C 44.7,44.8 43,43.1 41.7,41.1 36.2,33.1 37.9,22.3 45.5,16.3 46,16 46.6,16 47,16.5 c 0.2,0.3 0.3,0.6 0.2,0.9 -0.7,3.2 -1.3,8.2 1.7,12.5 2.6,3.6 8,7.1 11.3,7.1 0.7,4 -0.4,6.7 -2.8,8.9 z"
   id="path60" />
		<path
   class="st10"
   d="m 68.3,60.3 c 0,2.2 -1.3,3.9 -2.9,3.9 -1.6,0 -2.9,-1.8 -2.9,-3.9 0,-1.9 1,-3.5 2.3,-3.9 l 3.2,2.4 c 0.2,0.5 0.3,1 0.3,1.5 z"
   id="path62" />
		<path
   class="st1"
   d="m 67.2,59.8 c 0,0.8 -0.5,1.4 -1,1.4 -0.5,0 -1,-0.6 -1,-1.4 0,-0.8 0.5,-1.4 1,-1.4 0.5,0 1,0.6 1,1.4"
   id="path64" />
		<path
   class="st10"
   d="m 64.8,63.3 c -1.1,0.9 -2.1,1.9 -3,3 -0.4,0.5 -0.8,1.1 -1.1,1.8 -0.3,0.6 -0.5,1.3 -0.6,2 -0.1,0.3 -0.1,0.7 -0.1,1 v 0.5 0.5 c 0,0.7 0,1.4 0,2.2 0.1,0.7 0.2,1.5 0.3,2.2 0.1,0.4 0.1,0.7 0.2,1.1 0.1,0.3 0.2,0.7 0.4,1 -0.2,-0.3 -0.3,-0.7 -0.5,-1 -0.1,-0.3 -0.3,-0.7 -0.4,-1 -0.2,-0.7 -0.4,-1.4 -0.6,-2.2 -0.1,-0.7 -0.2,-1.5 -0.3,-2.2 v -0.5 -0.6 c 0,-0.4 0,-0.8 0,-1.1 0.1,-0.8 0.2,-1.6 0.5,-2.3 0.3,-0.7 0.6,-1.4 1,-2.1 0.9,-1.3 1.8,-2.5 2.9,-3.5 0.4,-0.3 0.9,-0.3 1.3,0 0.3,0.2 0.4,0.8 0,1.2 z"
   id="path66" />
		<path
   class="st10"
   d="M 64.1,63 C 64,63 64,63 63.9,63 h -0.1 -0.2 l -0.5,-0.1 c -0.3,-0.1 -0.6,-0.1 -0.9,-0.1 -0.6,0 -1.3,0 -1.9,0.2 -0.3,0.1 -0.6,0.2 -0.9,0.3 -0.9,0.4 -1.7,1.1 -2.2,1.9 0.3,-0.7 0.6,-1.3 1.1,-1.8 0.2,-0.3 0.5,-0.5 0.8,-0.7 0.3,-0.2 0.6,-0.4 0.9,-0.6 0.6,-0.4 1.3,-0.6 2.1,-0.8 0.4,-0.1 0.7,-0.1 1.1,-0.1 0.2,0 0.4,0 0.6,0 h 0.4 c 0,0 0.1,0 0,0 0.5,0 0.9,0.4 1,0.9 0.1,0.5 -0.5,0.9 -1.1,0.9 0.1,0 0,0 0,0"
   id="path68" />
		<path
   class="st10"
   d="m 88.8,60.3 c 0,2.2 -1.3,3.9 -2.8,3.9 -1.5,0 -2.9,-1.8 -2.9,-3.9 0,-0.5 0.1,-1 0.2,-1.5 l 3.2,-2.4 c 1.3,0.4 2.3,2 2.3,3.9 z"
   id="path70" />
		<path
   class="st1"
   d="m 84.1,59.8 c 0,0.8 0.5,1.4 1,1.4 0.5,0 1,-0.6 1,-1.4 0,-0.8 -0.5,-1.4 -1,-1.4 -0.5,0 -1,0.6 -1,1.4"
   id="path72" />
		<path
   class="st10"
   d="m 87.8,61.9 c 1.1,1.1 2,2.2 2.8,3.5 0.4,0.6 0.8,1.3 1.1,2 0.3,0.7 0.5,1.5 0.6,2.2 0.1,0.8 0.1,1.5 0,2.3 -0.1,0.7 -0.2,1.5 -0.3,2.2 -0.1,0.7 -0.3,1.4 -0.5,2.1 -0.1,0.3 -0.2,0.7 -0.4,1 -0.1,0.3 -0.3,0.7 -0.5,1 0.1,-0.3 0.3,-0.7 0.4,-1 0.1,-0.3 0.2,-0.7 0.3,-1 0.1,-0.7 0.3,-1.4 0.3,-2.1 0.1,-0.7 0.1,-1.4 0.1,-2.2 0,-0.7 -0.1,-1.4 -0.2,-2.1 -0.2,-0.7 -0.4,-1.3 -0.7,-1.9 -0.3,-0.6 -0.7,-1.2 -1.2,-1.7 -0.9,-1.1 -1.9,-2.1 -3,-3 v 0 c -0.4,-0.4 -0.4,-0.9 0,-1.3 0.3,-0.3 0.8,-0.4 1.2,0 v 0"
   id="path74" />
		<path
   class="st10"
   d="m 87.2,61.2 v 0 h 0.5 c 0.2,0 0.4,0 0.6,0 0.4,0 0.8,0 1.2,0.1 0.8,0.1 1.5,0.3 2.2,0.6 0.7,0.3 1.3,0.8 1.9,1.3 0.5,0.5 0.9,1.2 1.2,1.8 -0.4,-0.6 -0.9,-1.1 -1.5,-1.5 -0.6,-0.4 -1.2,-0.7 -1.9,-0.8 -0.7,-0.1 -1.4,-0.1 -2.1,-0.1 -0.3,0 -0.7,0.1 -1,0.1 l -0.5,0.1 h -0.2 -0.1 -0.1 -0.1 c -0.5,0.1 -1,-0.3 -1,-0.8 -0.1,-0.5 0.3,-1 0.8,-1 0.1,0 0.1,0 0.2,0"
   id="path76" />
	</g>
</g></svg>
