<?xml version="1.0" encoding="UTF-8" standalone="no"?>
<svg
   version="1.0"
   width="1440.000000pt"
   height="1440.000000pt"
   viewBox="0 0 1440.000000 1440.000000"
   preserveAspectRatio="xMidYMid meet"
   id="svg6"
   sodipodi:docname="polygon-token-logo-freelogovectors.net_.svg"
   inkscape:version="1.1.2 (76b9e6a115, 2022-02-25)"
   xmlns:inkscape="http://www.inkscape.org/namespaces/inkscape"
   xmlns:sodipodi="http://sodipodi.sourceforge.net/DTD/sodipodi-0.dtd"
   xmlns="http://www.w3.org/2000/svg"
   xmlns:svg="http://www.w3.org/2000/svg">
  <defs
     id="defs10" />
  <sodipodi:namedview
     id="namedview8"
     pagecolor="#ffffff"
     bordercolor="#666666"
     borderopacity="1.0"
     inkscape:pageshadow="2"
     inkscape:pageopacity="0.0"
     inkscape:pagecheckerboard="0"
     inkscape:document-units="pt"
     showgrid="false"
     inkscape:zoom="0.428125"
     inkscape:cx="958.83212"
     inkscape:cy="960"
     inkscape:window-width="1853"
     inkscape:window-height="1025"
     inkscape:window-x="67"
     inkscape:window-y="27"
     inkscape:window-maximized="1"
     inkscape:current-layer="svg6" />
  <g
     transform="translate(0.000000,1440.000000) scale(0.100000,-0.100000)"
     fill="#000000"
     stroke="none"
     id="g4"
     style="fill:#8247e5;fill-opacity:1"
     inkscape:export-filename="/home/ejiao/Downloads/g4.png"
     inkscape:export-xdpi="371"
     inkscape:export-ydpi="371">
    <path
       d="M6900 13954 c-726 -36 -1431 -182 -2105 -436 -145 -55 -205 -80 -400 -165 -108 -48 -457 -228 -585 -303 -259 -151 -599 -384 -835 -573 -344 -276 -724 -653 -1010 -1002 -774 -944 -1281 -2098 -1455 -3312 -51 -359 -64 -558 -64 -963 0 -405 13 -604 64 -963 143 -1000 506 -1947 1070 -2792 428 -640 984 -1223 1610 -1687 375 -278 842 -550 1260 -734 706 -310 1412 -491 2190 -561 271 -24 849 -24 1120 0 1171 105 2238 478 3195 1117 547 365 1056 828 1480 1345 774 944 1281 2098 1455 3312 51 359 64 558 64 963 0 405 -13 604 -64 963 -143 1000 -506 1947 -1070 2792 -365 546 -831 1059 -1345 1480 -945 775 -2099 1281 -3312 1454 -115 17 -291 37 -393 46 -175 16 -707 27 -870 19z m-1502 -3063 c56 -19 1897 -1053 1998 -1122 95 -65 182 -201 203 -319 6 -31 9 -220 8 -438 l-2 -383 -415 -236 c-228 -130 -422 -238 -430 -240 -13 -4 -15 45 -16 389 0 374 -1 396 -22 463 -12 39 -39 98 -60 130 -74 115 -112 140 -677 455 -290 161 -558 305 -594 319 -57 21 -82 25 -191 25 -106 0 -133 -3 -180 -22 -30 -12 -299 -158 -598 -324 -596 -332 -624 -351 -689 -473 -65 -123 -63 -105 -63 -799 0 -397 4 -648 11 -676 21 -91 69 -172 148 -250 72 -71 101 -89 599 -369 536 -301 597 -332 692 -352 72 -15 211 -6 281 19 29 10 340 182 689 382 349 200 858 486 1130 635 272 150 767 429 1099 619 403 231 625 353 670 367 128 40 297 31 404 -22 23 -11 478 -265 1011 -562 1055 -590 1059 -592 1124 -714 70 -133 66 -55 66 -1298 l0 -1120 -21 -70 c-35 -113 -112 -218 -208 -284 -98 -68 -1945 -1088 -2009 -1109 -102 -35 -212 -39 -315 -14 -74 19 -189 81 -1069 569 -952 529 -989 550 -1058 618 -75 75 -111 136 -138 240 -13 50 -15 124 -13 454 l2 394 425 242 c234 133 426 241 427 240 2 -1 3 -172 3 -381 1 -425 5 -458 66 -575 25 -47 59 -90 108 -136 65 -61 128 -99 599 -360 290 -161 555 -303 589 -315 89 -32 276 -32 360 -1 32 12 304 162 605 335 615 351 634 365 698 500 19 40 40 99 45 130 7 36 10 279 8 690 -3 632 -3 633 -26 689 -33 82 -114 192 -175 238 -75 57 -1086 617 -1160 643 -85 30 -266 32 -347 4 -54 -19 -869 -471 -1805 -1001 -930 -527 -1708 -959 -1774 -984 -58 -22 -82 -25 -191 -25 -101 -1 -135 3 -180 19 -30 11 -496 266 -1034 565 -1068 594 -1068 594 -1134 717 -70 133 -66 54 -66 1303 l0 1125 22 72 c28 90 92 185 163 241 30 24 434 255 899 514 1154 642 1104 615 1190 637 98 26 229 22 318 -8z"
       id="path2"
       style="fill:#8247e5;fill-opacity:1" />
  </g>
</svg>
